<?xml version="1.0" encoding="UTF-8"?>
<svg id="Layer_2" data-name="Layer 2" xmlns="http://www.w3.org/2000/svg" xmlns:xlink="http://www.w3.org/1999/xlink" viewBox="0 0 70.36 65.28">
  <defs>
    <style>
      .cls-1 {
        fill: #ffdf57;
      }

      .cls-2 {
        fill: #f3d802;
      }

      .cls-3 {
        fill: #fded04;
      }

      .cls-4 {
        fill: #fff;
      }

      .cls-5 {
        fill: #d57e4b;
      }

      .cls-6 {
        fill: #ffd524;
      }

      .cls-7 {
        fill: #fcee56;
      }

      .cls-8 {
        fill: #fffcca;
      }

      .cls-9 {
        fill: #ffbc00;
      }

      .cls-10 {
        clip-path: url(#clippath);
      }

      .cls-11 {
        opacity: .7;
      }
    </style>
    <clipPath id="clippath">
      <path class="cls-1" d="M57.06,18.72c-3.1-2.02-7.26-2.65-11.79-1.99-5.45.8-10.98.6-16.44-.07s-10.33.57-13.39,3.88c-5.64,4.95-6.95,15.99-2.66,26.88,4.99,12.68,15.68,20.35,23.87,17.13,0,0,0,0,.01,0,.67-.27,1.41-.27,2.08,0,0,0,0,0,.01,0,8.19,3.22,18.88-4.45,23.87-17.13,4.95-12.56,2.45-25.32-5.55-28.7Z"/>
    </clipPath>
  </defs>
  <g id="Layer_1-2" data-name="Layer 1">
    <g>
      <g>
        <path class="cls-7" d="M46.15,9.5c4.1-4.08,10.47-3.11,10.47-3.11-3.94-1.89-8.33-3.84-12.69-2.29-2.85,1.01-4.71,4.78-4.18,7.8,2.26-.11,4.7-.7,6.41-2.4Z"/>
        <path class="cls-2" d="M46.15,9.5c-1.71,1.71-4.15,2.29-6.41,2.4.07.39.17.78.33,1.14.26.37.57.73.96,1.06,2.15,1.83,5.22,1.63,7.62.46.44-.21.85-.46,1.23-.73,1.57-1.1,2.8-2.59,3.91-4.13.24-.33,2.37-3.53,2.82-3.31,0,0-6.37-.98-10.47,3.11ZM50.31,7.67c.11-.03.23-.05.36-.06-.13.01-.25.03-.36.06Z"/>
      </g>
      <g>
        <path class="cls-1" d="M57.06,18.72c-3.1-2.02-7.26-2.65-11.79-1.99-5.45.8-10.98.6-16.44-.07s-10.33.57-13.39,3.88c-5.64,4.95-6.95,15.99-2.66,26.88,4.99,12.68,15.68,20.35,23.87,17.13,0,0,0,0,.01,0,.67-.27,1.41-.27,2.08,0,0,0,0,0,.01,0,8.19,3.22,18.88-4.45,23.87-17.13,4.95-12.56,2.45-25.32-5.55-28.7Z"/>
        <g class="cls-10">
          <path class="cls-6" d="M23.55,37.48c-.08,8.14,3.64,16.24,9.86,21.49,6.07,5.12,13.98,7.4,21.71,9.23-9.54,3.67-20.32,5.99-29.87,2.34-6.49-2.48-11.75-7.52-15.66-13.26-3.91-5.74-6.62-12.2-9.3-18.61-2.02-4.82-4.07-10.07-2.8-15.13,1.19-4.73,5.08-8.31,9.25-10.82,4.39-2.64,9.49-4.44,14.6-3.94,3.04.3,6.03,1.51,8.34,3.51,3.02,2.61,3.12,4.36.67,7.28-4.21,5.01-6.74,11.34-6.8,17.91Z"/>
        </g>
      </g>
      <g class="cls-11">
        <path class="cls-8" d="M58.38,31.87c.45,2.77-.65,5.74-2.5,6.04s-3.32-1.96-3.76-4.73.3-5.01,2.15-5.3,3.67,1.22,4.12,3.99Z"/>
      </g>
      <path class="cls-3" d="M20.47,10.24c-8.71.84-9.39,1.53-10.24,10.24-.84-8.71-1.53-9.39-10.24-10.24,8.71-.84,9.39-1.53,10.24-10.24.84,8.71,1.53,9.39,10.24,10.24Z"/>
      <path class="cls-3" d="M70.36,56.48c-4.43.43-4.77.78-5.2,5.2-.43-4.43-.78-4.77-5.2-5.2,4.43-.43,4.77-.78,5.2-5.2.43,4.43.78,4.77,5.2,5.2Z"/>
      <path class="cls-4" d="M58.83,45.04c-3.13.3-3.37.55-3.68,3.68-.3-3.13-.55-3.37-3.68-3.68,3.13-.3,3.37-.55,3.68-3.68.3,3.13.55,3.37,3.68,3.68Z"/>
      <path class="cls-4" d="M65.87,29.59c-3.91.38-4.22.69-4.6,4.6-.38-3.91-.69-4.22-4.6-4.6,3.91-.38,4.22-.69,4.6-4.6.38,3.91.69,4.22,4.6,4.6Z"/>
      <path class="cls-4" d="M23.11,53.49c-2.77.27-2.98.49-3.25,3.25-.27-2.77-.49-2.98-3.25-3.25,2.77-.27,2.98-.49,3.25-3.25.27,2.77.49,2.98,3.25,3.25Z"/>
      <g>
        <path class="cls-9" d="M36.44,24.65c.1-.75.14-1.51.15-2.27h-5.12c0,1.25,2.15,2.29,4.96,2.5,0-.08,0-.15,0-.23Z"/>
        <path class="cls-9" d="M43.41,22.39h-4.82c-.01.83-.07,1.67-.19,2.5,2.84-.2,5-1.24,5-2.5Z"/>
        <path class="cls-5" d="M35.44,10.84c-.29-.47-.9-.61-1.36-.32-.47.29-.61.9-.32,1.36,1.91,3.11,2.9,6.84,2.84,10.51h2c.07-4.05-1.02-8.07-3.15-11.55Z"/>
        <path class="cls-5" d="M36.59,22.39c-.01.76-.05,1.52-.15,2.27-.01.08,0,.16,0,.23.33.02.66.04,1.01.04s.65-.01.96-.04c.11-.83.17-1.67.19-2.5h-2Z"/>
      </g>
      <path class="cls-5" d="M36.95,16.37s-.01,0-.02,0c-.34-.07-.55-.4-.48-.73.23-1.12,2.19-3.3,2.99-3.81.29-.19.67-.1.86.19.19.29.1.67-.19.86-.69.44-2.31,2.38-2.44,3.02-.07.33-.38.54-.71.49Z"/>
    </g>
  </g>
</svg>