<?xml version="1.0" encoding="UTF-8"?>
<svg id="Layer_2" data-name="Layer 2" xmlns="http://www.w3.org/2000/svg" xmlns:xlink="http://www.w3.org/1999/xlink" viewBox="0 0 55.02 53.8">
  <defs>
    <style>
      .cls-1 {
        fill: #ffc2ce;
      }

      .cls-2 {
        fill: #f44c70;
      }

      .cls-3 {
        clip-path: url(#clippath-1);
      }

      .cls-4 {
        fill: #7fbd3e;
      }

      .cls-5 {
        fill: #98ce59;
      }

      .cls-6 {
        fill: #a56a43;
      }

      .cls-7 {
        clip-path: url(#clippath-2);
      }

      .cls-8 {
        fill: #ff728b;
      }

      .cls-9 {
        clip-path: url(#clippath);
      }
    </style>
    <clipPath id="clippath">
      <circle class="cls-8" cx="9.22" cy="44.59" r="9.22"/>
    </clipPath>
    <clipPath id="clippath-1">
      <circle class="cls-8" cx="31.33" cy="43.17" r="9.22"/>
    </clipPath>
    <clipPath id="clippath-2">
      <circle class="cls-8" cx="14.38" cy="24.73" r="9.22"/>
    </clipPath>
  </defs>
  <g id="Layer_1-2" data-name="Layer 1">
    <g>
      <path class="cls-6" d="M13.44,37.17l-.81-.23c2.73-9.73,10.05-17.9,19.35-21.77-4.09.05-9.19.9-13.5,4.08l-.5-.68c5.32-3.92,11.76-4.44,16.21-4.2l2.18.12-2.07.7c-10.01,3.38-18,11.8-20.85,21.97Z"/>
      <path class="cls-6" d="M30.45,39.62c-1.62-8.54-.1-17.78,4.19-25.34l.73.42c-4.19,7.39-5.69,16.42-4.1,24.76l-.83.16Z"/>
      <g>
        <circle class="cls-8" cx="9.22" cy="44.59" r="9.22"/>
        <g class="cls-9">
          <path class="cls-2" d="M5.54,51.76c2.7.19,5.5-.25,7.8-1.67,2.9-1.79,4.78-5.14,4.8-8.55.83,2.14,1.36,4.44,1.15,6.73s-1.25,4.56-3.1,5.92c-1.44,1.06-3.26,1.51-5.04,1.61-3.89.23-10.9-1.52-12.62-5.55,2.34.31,4.58,1.34,7.01,1.51Z"/>
        </g>
      </g>
      <g>
        <circle class="cls-8" cx="31.33" cy="43.17" r="9.22"/>
        <g class="cls-3">
          <path class="cls-2" d="M34.05,49.8c3.69-1.67,6.41-5.31,6.96-9.32,1.28,2.93,1.04,6.48-.62,9.22s-4.69,4.59-7.88,4.82c-1.87.13-3.77-.27-5.45-1.11-1.68-.84-3.77-2.4-4.42-4.19,1.92.34,3.6,1.47,5.68,1.61,1.95.13,3.95-.21,5.73-1.02Z"/>
        </g>
      </g>
      <g>
        <circle class="cls-8" cx="14.38" cy="24.73" r="9.22"/>
        <g class="cls-7">
          <path class="cls-2" d="M15.01,31.29c4.04-1.3,7.5-4.32,9.35-8.14,1.04,3.35-.41,7.17-3.07,9.45s-6.34,3.14-9.84,2.91c-1.28-.08-10.01-2.86-7.48-4.28,1.07-.61,4.01.69,5.19.77,1.98.13,3.98-.1,5.87-.71Z"/>
        </g>
      </g>
      <circle class="cls-1" cx="12.02" cy="21.74" r="1.55"/>
      <circle class="cls-1" cx="7.48" cy="40.37" r="1.55"/>
      <circle class="cls-1" cx="27.76" cy="40.74" r="1.73"/>
      <path class="cls-5" d="M30.5,5.01c1.84.95,3.38,2.42,4.83,3.88,1.18,1.21,2.28,2.48,3.34,3.79.14-.24.27-.49.38-.76,1.17-2.83-.09-5.88-2.15-8.01-.75-.78-1.61-1.44-2.5-1.92C31.92.65,28.61-.28,25.78.08c.58.88.85,1.78.71,2.85-.12.92-.45,1.8-.62,2.71-.4,2.15.1,4.45,1.37,6.24,2.3,3.24,7.65,4.72,10.53,1.96-2.02-3.23-4.16-6.56-7.26-8.83Z"/>
      <path class="cls-4" d="M44.79,10.8c-3.94-1.37-9.22.39-10.4,4.34,2.33.43,4.64.92,6.94,1.48,2.42.67,4.98,1.2,7.1,2.59-1.09-.64-2.32-.95-3.53-1.26-3.52-.81-7.13-1.28-10.72-1.66-.05.54-.02,1.12.09,1.73.61,3.35,3.67,5.49,6.85,6.22.58.13,1.16.22,1.73.25,2.34.15,4.66-.31,6.91-.92.48-.13,4.99-1.52,5.25-.98-2.26-4.77-4.89-9.93-10.22-11.78Z"/>
    </g>
  </g>
</svg>