<?xml version="1.0" encoding="UTF-8"?>
<svg id="Layer_2" data-name="Layer 2" xmlns="http://www.w3.org/2000/svg" viewBox="0 0 76.23 76.87">
  <defs>
    <style>
      .cls-1 {
        fill: #59d04f;
      }
    </style>
  </defs>
  <g id="Layer_1-2" data-name="Layer 1">
    <g>
      <path class="cls-1" d="M37.91,76.87C17.01,76.87,0,59.86,0,38.96S17.01,1.05,37.91,1.05c9.52,0,18.62,3.54,25.63,9.98,1.77,1.63,1.89,4.38.26,6.16-1.63,1.77-4.38,1.89-6.16.26-5.4-4.96-12.41-7.68-19.74-7.68-16.1,0-29.19,13.1-29.19,29.19s13.1,29.19,29.19,29.19c12.54,0,23.98-8.39,27.82-20.41.73-2.29,3.19-3.56,5.48-2.82,2.29.73,3.56,3.19,2.82,5.48-4.99,15.59-19.84,26.47-36.12,26.47Z"/>
      <path class="cls-1" d="M76.22,27.53l-2.24-25.24c-.19-2.12-2.77-3.06-4.28-1.55l-23,23c-1.51,1.51-.57,4.09,1.55,4.28l25.24,2.24c1.56.14,2.86-1.17,2.72-2.72Z"/>
    </g>
  </g>
</svg>