<?xml version="1.0" encoding="UTF-8"?>
<svg id="Layer_2" data-name="Layer 2" xmlns="http://www.w3.org/2000/svg" viewBox="0 0 74.71 54.21">
  <defs>
    <style>
      .cls-1 {
        fill: #d2f1ff;
      }

      .cls-2 {
        fill: #75d384;
      }
    </style>
  </defs>
  <g id="Layer_1-2" data-name="Layer 1">
    <g>
      <path class="cls-1" d="M58.48,13.56C56.4,5.76,49.31,0,40.85,0c-7.75,0-14.35,4.83-17,11.64-1.08-.27-2.2-.43-3.36-.43-7.41,0-13.43,5.93-13.6,13.3-4.11,2.34-6.89,6.76-6.89,11.83,0,7.52,6.1,13.62,13.62,13.62.31,0,.61-.03.91-.05v.05h41.92c10.08,0,18.26-8.18,18.26-18.26,0-9.4-7.1-17.13-16.23-18.14Z"/>
      <g>
        <rect class="cls-2" x="33.52" y="26.68" width="7.66" height="21.4" rx="2.46" ry="2.46"/>
        <path class="cls-2" d="M38.54,53.65l10.13-12.39c.82-1,.11-2.5-1.19-2.5h-20.25c-1.29,0-2.01,1.5-1.19,2.5l10.13,12.39c.61.75,1.76.75,2.37,0Z"/>
      </g>
    </g>
  </g>
</svg>