<?xml version="1.0" encoding="UTF-8"?>
<svg id="Layer_2" data-name="Layer 2" xmlns="http://www.w3.org/2000/svg" xmlns:xlink="http://www.w3.org/1999/xlink" viewBox="0 0 56.51 56.51">
  <defs>
    <style>
      .cls-1 {
        fill: #a0e254;
      }

      .cls-2 {
        fill: #60a4e8;
      }

      .cls-3 {
        clip-path: url(#clippath);
      }
    </style>
    <clipPath id="clippath">
      <circle class="cls-2" cx="28.26" cy="28.26" r="28.26"/>
    </clipPath>
  </defs>
  <g id="Layer_1-2" data-name="Layer 1">
    <g>
      <circle class="cls-2" cx="28.26" cy="28.26" r="28.26"/>
      <g class="cls-3">
        <path class="cls-1" d="M40.28,8.04c.11,1.01-1.14,1.57-2.14,1.72s-2.26.42-2.49,1.41c-.31,1.39,1.84,2.46,1.48,3.84-.18.67-.93,1.05-1.62,1.05s-1.35-.28-2-.52c-1.63-.6-3.45-.95-5.08-.37s-2.94,2.33-2.53,4.01c.31,1.25,1.43,2.13,2.57,2.73s2.39,1.04,3.36,1.89c1.44,1.27,2.01,3.23,2.6,5.06.42,1.3,1.07,2.77,2.4,3.08.56.13,1.16.01,1.69-.22,2.08-.94,2.9-3.45,3.25-5.71.11-.72.2-1.47.54-2.12s.97-1.2,1.7-1.21c1.63,0,2.66,2.53,4.23,2.07,1.23-.36,1.46-2.34,2.72-2.58.09.9.85,1.7,1.75,1.84.19.03.39.04.56.12.49.26.25,1.18-.3,1.17-.19,1.21-.74,2.37-1.56,3.29.74.42,1.72.05,2.26-.6s.74-1.52.92-2.35c.21-.94.41-1.88.61-2.81.47-2.18.93-4.37,1.4-6.55.3-1.42.61-2.91.25-4.32-.31-1.23-1.09-2.29-1.97-3.21-2.97-3.09-6.51-3.78-10.42-4.97-1.42-.43-2.48-.75-3.85.04-.74.42-1.53,1.05-1.49,1.99s1.07,1.35,1.16,2.23Z"/>
        <path class="cls-1" d="M13.14,7.65c-.04,1.63.53,3.28.15,4.86-.78,3.21-5.01,4.65-5.76,7.87-.23.97-.1,2-.31,2.97-.32,1.47-1.4,2.75-1.43,4.25-.02.63.16,1.27.07,1.89-.11.78-.6,1.45-1.15,2.02-2.37,2.5-5.99,3.74-9.39,3.22-.75-6.09-2.52-12.44-.38-18.19C-3.55,12.49-.22,9.3,3.54,7.13c2.73-1.58,5.73-2.73,8.74-3.67,1.06-.33,2.36-.82,2.13.51-.22,1.27-1.23,2.22-1.26,3.68Z"/>
        <path class="cls-1" d="M11.23,42.55c.69-.16,1.41-.24,2.1-.08,1.61.36,2.66,1.85,3.65,3.16,2.08,2.77,4.92,5.46,8.39,5.5,1.97.03,3.9-.82,5.85-.6,1.88.21,3.6,1.39,5.49,1.33.93-.03,1.94-.34,2.73.14.5.3.78.84,1.01,1.37.47,1.08.77,2.45.02,3.36-.41.5-1.05.73-1.67.93-5.58,1.75-11.61,1.51-17.38.55-2.87-.48-5.79-1.17-8.17-2.83-1.9-1.33-3.34-3.2-4.75-5.04-1.11-1.45-3.09-3.01-1.9-4.86.96-1.48,2.95-2.53,4.62-2.93Z"/>
        <path class="cls-1" d="M48.28,38.29c-4.41.15-8.85-1.91-13.15-.87-1.93.47-3.92,1.92-3.91,3.91,0,1.84,1.74,3.27,3.53,3.72s3.66.19,5.5.23c.7.02,1.4.08,2.05.34.87.35,1.56,1.03,2.32,1.58,1.39,1.02,3.2,1.68,4.86,1.21,1.57-.43,2.72-1.74,3.77-2.99,1.38-1.63,5.11-5.6,3.26-7.88-1.69-2.08-6.01.67-8.23.74Z"/>
      </g>
    </g>
  </g>
</svg>