<?xml version="1.0" encoding="UTF-8"?>
<svg id="Layer_2" data-name="Layer 2" xmlns="http://www.w3.org/2000/svg" viewBox="0 0 80.05 58.52">
  <defs>
    <style>
      .cls-1 {
        fill: #f4e3b3;
      }

      .cls-2 {
        fill: #b0e09d;
      }

      .cls-3 {
        fill: #a1dd8e;
      }

      .cls-4 {
        fill: #eca0aa;
      }

      .cls-5 {
        fill: #fbf1cf;
      }

      .cls-6 {
        fill: #fff;
      }

      .cls-7 {
        fill: #e88b9b;
      }

      .cls-8 {
        fill: #8ad67f;
      }

      .cls-9 {
        fill: #aedff4;
      }

      .cls-10 {
        fill: #e0bc8d;
      }
    </style>
  </defs>
  <g id="Layer_1-2" data-name="Layer 1">
    <g>
      <path class="cls-10" d="M56.5,0h3.11c1.27,0,2.3,1.03,2.3,2.3v13.98h-7.7V2.3c0-1.27,1.03-2.3,2.3-2.3Z"/>
      <g>
        <path class="cls-5" d="M38.09,10.21l-18.98,11.72v36.59h45.36c2.03,0,3.68-1.65,3.68-3.68v-27.21c0-.49-.1-.97-.28-1.42l-25.91-16c-1.19-.73-2.69-.73-3.87,0Z"/>
        <path class="cls-1" d="M12.18,26.22c-.18.44-.28.92-.28,1.42v27.21c0,2.04,1.65,3.68,3.68,3.68h3.53V21.93l-6.93,4.28Z"/>
        <path class="cls-7" d="M13.71,24.45l5.4-3.17v-8.01l-11.97,7.39c-1.09.67-1.75,1.86-1.75,3.14,0,2.89,3.17,4.65,5.62,3.14l1.16-.72c.3-.73.84-1.35,1.54-1.76Z"/>
        <path class="cls-4" d="M72.9,20.66L41.96,1.55c-1.19-.73-2.69-.73-3.87,0l-18.98,11.72v8.01l19.05-11.17c1.15-.68,2.58-.68,3.73,0l24.45,14.34c.7.41,1.23,1.04,1.54,1.76l1.16.72c2.45,1.52,5.62-.25,5.62-3.14,0-1.28-.66-2.46-1.75-3.14Z"/>
        <path class="cls-4" d="M66.34,24.45l-24.45-14.34c-1.15-.68-2.58-.68-3.73,0l-19.05,11.17v.65l18.98-11.72c1.19-.73,2.69-.73,3.87,0l25.91,16c-.3-.73-.84-1.35-1.54-1.76Z"/>
        <path class="cls-7" d="M19.11,21.29l-5.4,3.17c-.7.41-1.23,1.04-1.54,1.76l6.93-4.28v-.65Z"/>
      </g>
      <path class="cls-10" d="M36.23,37.36h7.59c3.13,0,5.68,2.54,5.68,5.68v15.49h-18.94v-15.49c0-3.13,2.54-5.68,5.68-5.68Z"/>
      <rect class="cls-9" x="34.62" y="18.5" width="10.81" height="10.81" rx="5.41" ry="5.41"/>
      <circle class="cls-6" cx="35.53" cy="48.44" r="1.41"/>
      <path class="cls-2" d="M23.26,49.29c0-1.04-.84-1.87-1.87-1.87-.03,0-.06,0-.1,0-.16-.49-.51-.89-.97-1.12,0-.06.02-.13.02-.19,0-1.04-.84-1.87-1.87-1.87-.13,0-.25.01-.37.04,0-.01,0-.02,0-.04,0-1.29-1.05-2.34-2.34-2.34-.5,0-.97.16-1.35.43-.5-.58-1.22-.95-2.04-.95-1.39,0-2.52,1.05-2.67,2.4-.01,0-.02,0-.03,0-1.18,0-2.14.96-2.14,2.14,0,.21.04.41.1.6-.84.29-1.45,1.08-1.45,2.01,0,.09.02.18.03.27-.51.31-.86.87-.86,1.52,0,.99.8,1.79,1.79,1.79.04,0,.07,0,.11-.01.04,0,.07.01.11.01h13.95c.72,0,1.31-.59,1.31-1.31,0-.03,0-.06,0-.09.4-.34.66-.85.66-1.42Z"/>
      <path class="cls-3" d="M22.26,55.02c0-1.29-1.04-2.33-2.33-2.33-.04,0-.08.01-.12.01-.2-.61-.63-1.11-1.2-1.39,0-.08.02-.16.02-.24,0-1.29-1.04-2.33-2.33-2.33-.16,0-.31.02-.47.05,0-.02,0-.03,0-.05,0-1.61-1.3-2.91-2.91-2.91-.63,0-1.2.2-1.68.54-.62-.72-1.52-1.18-2.54-1.18-1.73,0-3.13,1.31-3.32,2.98-.01,0-.02,0-.04,0-1.47,0-2.65,1.19-2.65,2.65,0,.26.05.51.12.75-1.04.36-1.8,1.34-1.8,2.5,0,.11.02.22.03.33-.64.39-1.06,1.09-1.06,1.89,0,1.23.99,2.22,2.22,2.22.05,0,.09-.01.14-.01.05,0,.09.01.13.01h17.33c.89,0,1.62-.73,1.62-1.62,0-.04,0-.08-.01-.11.5-.43.82-1.05.82-1.76Z"/>
      <path class="cls-8" d="M30.05,55.75c0-.96-.74-1.85-1.82-1.85-.03,0-.06,0-.1,0-.16-.48-.5-.88-.95-1.1,0-.06.02-.12.02-.19,0-1.02-.83-1.85-1.85-1.85-.13,0-.25.01-.37.04,0-.01,0-.02,0-.04,0-1.27-1.03-2.31-2.31-2.31-.5,0-.95.16-1.33.43-.49-.57-1.2-.93-2.01-.93-1.37,0-2.48,1.04-2.63,2.36-.01,0-.02,0-.03,0-1.16,0-2.1.94-2.1,2.1,0,.21.04.4.1.59-.83.28-1.43,1.06-1.43,1.98,0,.09.02.18.03.26-.5.31-.84.86-.84,1.5,0,.97.79,1.76,1.76,1.76.04,0,.07,0,.11-.01.04,0,.07.01.11.01,0,0,13.73,0,13.74,0,.44,0,.83-.25,1.06-.62.13-.2.16-.41.24-.63.08-.24.29-.42.41-.65.14-.28.21-.58.2-.87Z"/>
      <path class="cls-2" d="M56.79,49.29c0-1.04.84-1.87,1.87-1.87.03,0,.06,0,.1,0,.16-.49.51-.89.97-1.12,0-.06-.02-.13-.02-.19,0-1.04.84-1.87,1.87-1.87.13,0,.25.01.37.04,0-.01,0-.02,0-.04,0-1.29,1.05-2.34,2.34-2.34.5,0,.97.16,1.35.43.5-.58,1.22-.95,2.04-.95,1.39,0,2.52,1.05,2.67,2.4.01,0,.02,0,.03,0,1.18,0,2.14.96,2.14,2.14,0,.21-.04.41-.1.6.84.29,1.45,1.08,1.45,2.01,0,.09-.02.18-.03.27.51.31.86.87.86,1.52,0,.99-.8,1.79-1.79,1.79-.04,0-.07,0-.11-.01-.04,0-.07.01-.11.01h-13.95c-.72,0-1.31-.59-1.31-1.31,0-.03,0-.06,0-.09-.4-.34-.66-.85-.66-1.42Z"/>
      <path class="cls-3" d="M57.79,55.02c0-1.29,1.04-2.33,2.33-2.33.04,0,.08.01.12.01.2-.61.63-1.11,1.2-1.39,0-.08-.02-.16-.02-.24,0-1.29,1.04-2.33,2.33-2.33.16,0,.31.02.47.05,0-.02,0-.03,0-.05,0-1.61,1.3-2.91,2.91-2.91.63,0,1.2.2,1.68.54.62-.72,1.52-1.18,2.54-1.18,1.73,0,3.13,1.31,3.32,2.98.01,0,.02,0,.04,0,1.47,0,2.65,1.19,2.65,2.65,0,.26-.05.51-.12.75,1.04.36,1.8,1.34,1.8,2.5,0,.11-.02.22-.03.33.64.39,1.06,1.09,1.06,1.89,0,1.23-.99,2.22-2.22,2.22-.05,0-.09-.01-.14-.01-.05,0-.09.01-.13.01h-17.33c-.89,0-1.62-.73-1.62-1.62,0-.04,0-.08.01-.11-.5-.43-.82-1.05-.82-1.76Z"/>
      <path class="cls-8" d="M50,55.75c0-.96.74-1.85,1.82-1.85.03,0,.06,0,.1,0,.16-.48.5-.88.95-1.1,0-.06-.02-.12-.02-.19,0-1.02.83-1.85,1.85-1.85.13,0,.25.01.37.04,0-.01,0-.02,0-.04,0-1.27,1.03-2.31,2.31-2.31.5,0,.95.16,1.33.43.49-.57,1.2-.93,2.01-.93,1.37,0,2.48,1.04,2.63,2.36.01,0,.02,0,.03,0,1.16,0,2.1.94,2.1,2.1,0,.21-.04.4-.1.59.83.28,1.43,1.06,1.43,1.98,0,.09-.02.18-.03.26.5.31.84.86.84,1.5,0,.97-.79,1.76-1.76,1.76-.04,0-.07,0-.11-.01-.04,0-.07.01-.11.01,0,0-13.73,0-13.74,0-.44,0-.83-.25-1.06-.62-.13-.2-.16-.41-.24-.63-.08-.24-.29-.42-.41-.65-.14-.28-.21-.58-.2-.87Z"/>
    </g>
  </g>
</svg>