<?xml version="1.0" encoding="UTF-8"?>
<svg id="Layer_2" data-name="Layer 2" xmlns="http://www.w3.org/2000/svg" viewBox="0 0 74.44 75.64">
  <defs>
    <style>
      .cls-1 {
        fill: #82bcf4;
      }

      .cls-2 {
        fill: #fff;
      }

      .cls-3 {
        fill: #9dcc6b;
      }

      .cls-4 {
        fill: #ffde76;
      }

      .cls-5 {
        fill: #f26674;
      }
    </style>
  </defs>
  <g id="Layer_1-2" data-name="Layer 1">
    <g>
      <g>
        <rect class="cls-1" y="0" width="34.57" height="34.57" rx="4.16" ry="4.16"/>
        <path class="cls-2" d="M9.59,16.59c0-.54.11-.98.34-1.32.23-.34.49-.59.78-.76.29-.17.67-.31,1.12-.42.84-.11,1.62-.18,2.34-.23.71-.04,1.41-.07,2.08-.07s1.36.02,2.06.07c.7.04,1.45.1,2.22.16.78.06,1.66.15,2.63.26.39.09.7.2.94.34.24.14.44.36.62.67.17.3.26.71.26,1.23-.02.56-.14,1.01-.34,1.35-.21.34-.45.59-.73.76-.28.17-.57.29-.86.34-.29.05-.63.08-1.02.08-1.02-.11-1.96-.19-2.83-.24-.87-.05-1.7-.09-2.5-.1-.8-.01-1.62,0-2.47.02-.84.02-1.75.05-2.73.1-.39-.04-.71-.13-.96-.26-.25-.13-.47-.35-.65-.65-.18-.3-.29-.75-.31-1.33ZM17.32,24.84c-.56-.02-1.01-.14-1.35-.36-.34-.22-.58-.47-.75-.76-.16-.29-.3-.65-.41-1.09-.09-1.26-.14-2.41-.16-3.46-.02-1.05-.01-2.06.03-3.04.04-.97.1-1.97.16-2.99.07-1.02.15-2.12.26-3.31.07-.39.16-.7.29-.94.13-.24.35-.44.65-.62.3-.17.71-.26,1.23-.26.58.02,1.05.12,1.4.31.35.18.61.42.78.71.17.29.3.57.37.84.08.27.11.6.11.99-.11,1.43-.19,2.77-.24,4.01-.05,1.25-.08,2.51-.08,3.8s.01,2.71.03,4.27c-.07.39-.17.71-.31.97-.14.26-.37.48-.68.65-.31.17-.76.26-1.35.26Z"/>
      </g>
      <g>
        <rect class="cls-4" x="39.44" width="34.57" height="34.57" rx="4.16" ry="4.16"/>
        <path class="cls-2" d="M52.05,18.57h-.34c-.21,0-.44-.04-.7-.11-.26-.08-.51-.22-.75-.42-.24-.21-.42-.5-.55-.89-.13-.41-.16-.76-.1-1.04.07-.28.17-.5.32-.65.15-.15.37-.29.65-.42.58-.11,1.21-.22,1.87-.34.66-.12,1.35-.22,2.08-.29.73-.08,1.47-.12,2.24-.15.77-.02,1.57-.02,2.4.02.83.03,1.69.11,2.58.24.43.17.79.35,1.07.54.28.18.52.41.73.68.21.27.31.59.31.96-.02.48-.13.85-.32,1.12-.19.27-.42.47-.68.6-.26.13-.58.23-.97.29-.91-.07-1.72-.12-2.42-.16-.7-.04-1.34-.08-1.92-.11-.57-.03-1.14-.04-1.69-.03-.55.01-1.13.03-1.74.05-.61.02-1.3.06-2.08.13Z"/>
      </g>
      <g>
        <rect class="cls-3" x="39.87" y="41.07" width="34.57" height="34.57" rx="4.16" ry="4.16"/>
        <path class="cls-2" d="M52.48,59.86h-.36c-.19,0-.42-.04-.68-.11-.26-.08-.51-.22-.75-.42-.24-.21-.42-.5-.55-.89-.13-.41-.16-.75-.1-1.02.07-.27.17-.49.32-.65.15-.16.37-.31.65-.44.58-.11,1.21-.22,1.87-.32.66-.11,1.35-.21,2.08-.29.73-.09,1.47-.14,2.24-.16.77-.02,1.57-.01,2.4.03.83.04,1.69.13,2.58.26.43.17.79.35,1.07.52.28.17.52.4.73.67.21.27.31.6.31.99-.02.48-.13.84-.32,1.1-.19.26-.42.45-.68.58-.26.13-.58.23-.97.29-.91-.06-1.72-.12-2.42-.16-.7-.04-1.34-.08-1.92-.1-.57-.02-1.14-.03-1.69-.03s-1.13.02-1.74.05c-.61.03-1.3.07-2.08.11ZM57.12,54.63c-.5,0-.95-.1-1.36-.31-.41-.21-.74-.49-.97-.84-.24-.36-.36-.75-.36-1.19s.12-.83.36-1.19c.24-.36.56-.64.97-.84.41-.21.88-.31,1.4-.31s.98.1,1.4.31c.41.21.74.49.97.84.24.36.36.75.36,1.19,0,.56-.12,1.02-.36,1.36-.24.35-.56.6-.97.75-.41.15-.89.23-1.43.23ZM57.12,65.41c-.5,0-.95-.11-1.36-.32-.41-.22-.74-.5-.97-.86-.24-.36-.36-.75-.36-1.19s.12-.82.36-1.17c.24-.35.57-.62.99-.83.42-.21.88-.31,1.38-.31s.98.1,1.4.31c.41.21.74.48.97.83.24.35.36.74.36,1.17,0,.56-.12,1.02-.36,1.38-.24.36-.56.61-.97.76-.41.15-.89.23-1.43.23Z"/>
      </g>
      <g>
        <rect class="cls-5" x=".43" y="40.66" width="34.57" height="34.57" rx="4.16" ry="4.16"/>
        <path class="cls-2" d="M23.88,65.25c-.37.17-.72.24-1.06.2-.34-.04-.64-.15-.91-.32-.27-.17-.56-.4-.86-.68-1-1.13-1.93-2.18-2.81-3.17-.88-.98-1.72-1.95-2.52-2.91-.8-.95-1.61-1.98-2.42-3.07-.81-1.09-1.65-2.32-2.52-3.69-.13-.3-.21-.57-.23-.8-.02-.23.03-.46.16-.7.13-.24.38-.44.75-.62.35-.15.68-.19,1.01-.13.32.06.62.18.88.34.26.16.55.38.88.67,1.04,1.3,2.07,2.59,3.1,3.88,1.03,1.29,2.12,2.63,3.28,4.01,1.16,1.39,2.42,2.91,3.78,4.58.19.33.32.61.37.86.05.25.02.51-.1.8-.12.28-.38.53-.8.75ZM11.7,65.32c-.41-.24-.68-.49-.8-.76-.12-.27-.16-.52-.11-.76.04-.24.15-.52.32-.84,1.02-1.21,1.96-2.35,2.83-3.41.87-1.06,1.7-2.11,2.5-3.13.8-1.03,1.6-2.08,2.4-3.17.8-1.08,1.62-2.22,2.47-3.41.35-.32.69-.54,1.02-.63.34-.1.73-.05,1.19.15.43.17.74.39.93.65.18.26.29.5.32.73.03.23,0,.49-.08.8-.89,1.47-1.74,2.81-2.57,4.03-.82,1.21-1.64,2.35-2.45,3.43s-1.65,2.12-2.5,3.15c-.86,1.03-1.77,2.08-2.74,3.17-.48.28-.92.43-1.33.45-.41.02-.88-.12-1.4-.42Z"/>
      </g>
    </g>
  </g>
</svg>