<?xml version="1.0" encoding="UTF-8"?>
<svg id="Layer_2" data-name="Layer 2" xmlns="http://www.w3.org/2000/svg" viewBox="0 0 88.04 65.86">
  <defs>
    <style>
      .cls-1 {
        fill: #86db63;
      }

      .cls-2 {
        fill: #57b236;
      }

      .cls-3 {
        fill: #d0fcfc;
      }

      .cls-4 {
        fill: #78c658;
      }

      .cls-5 {
        fill: #fca84c;
      }
    </style>
  </defs>
  <g id="Layer_1-2" data-name="Layer 1">
    <g>
      <rect class="cls-3" x="37.02" y="0" width="23.69" height="8.64" rx="4.32" ry="4.32"/>
      <rect class="cls-3" x="44.93" y="6.43" width="28.44" height="10.91" rx="5.46" ry="5.46"/>
      <path class="cls-2" d="M20.96,23.37L1.11,54.78c-2.99,4.72.41,10.89,6,10.89h39.71c5.59,0,8.98-6.16,6-10.89l-19.85-31.41c-2.78-4.41-9.21-4.41-12,0Z"/>
      <path class="cls-4" d="M84.99,59.6l-13.56-21.45c-2.12-3.35-7.01-3.35-9.13,0l-1.2,1.89c-.34.54-1.12.54-1.46,0l-7.83-12.38c-2.12-3.35-7.01-3.35-9.13,0l-20.19,31.94c-1.7,2.7.43,6.07,3.83,6.07h54.82c3.41,0,5.54-3.37,3.83-6.07Z"/>
      <circle class="cls-5" cx="59.62" cy="11.88" r="9.88"/>
      <path class="cls-1" d="M64.07,35.21l-14.29,22.62c-2.2,3.49.3,8.03,4.43,8.03h28.59c4.12,0,6.63-4.55,4.43-8.03l-14.29-22.62c-2.05-3.25-6.8-3.25-8.85,0Z"/>
      <circle class="cls-3" cx="31.39" cy="4.32" r="3.42"/>
    </g>
  </g>
</svg>