<?xml version="1.0" encoding="UTF-8"?>
<svg id="Layer_2" data-name="Layer 2" xmlns="http://www.w3.org/2000/svg" viewBox="0 0 49.63 63.9">
  <defs>
    <style>
      .cls-1 {
        fill: #6aa03f;
      }

      .cls-2 {
        fill: #7fbd3e;
      }

      .cls-3 {
        fill: #87663b;
      }
    </style>
  </defs>
  <g id="Layer_1-2" data-name="Layer 1">
    <g>
      <path class="cls-1" d="M22.76,58.91c-.37-11.44,2.09-22.93,7.11-33.21l1.06.52c-4.94,10.11-7.36,21.41-6.99,32.66l-1.18.04Z"/>
      <path class="cls-1" d="M25.17,39.16c-1.45-2.17-3.47-3.89-5.84-5l.5-1.07c2.56,1.19,4.74,3.07,6.32,5.41l-.98.66Z"/>
      <path class="cls-2" d="M28.51,8.74c-3.73,4.84-3.74,12.99,1.2,16.45,1.68-3.04,3.43-6.02,5.28-8.95,2.05-3.05,3.98-6.36,6.89-8.67-1.4,1.21-2.4,2.78-3.4,4.32-2.76,4.52-5.09,9.31-7.27,14.13.73.32,1.54.55,2.44.68,4.94.71,9.33-2.55,11.82-6.64.45-.74.84-1.51,1.16-2.29,1.3-3.18,1.73-6.62,1.93-10.03.04-.73.2-7.64,1.07-7.74-7.67.93-16.06,2.18-21.11,8.74Z"/>
      <path class="cls-2" d="M7.28,27.83c2.41.22,4.72,1.14,6.94,2.09,1.81.8,3.56,1.69,5.28,2.65.05-.32.08-.65.08-.99.02-3.58-2.67-6.34-5.85-7.75-1.16-.52-2.38-.85-3.56-.99-3.27-.37-7.27.07-10.18,1.7,1.01.7,1.7,1.55,2.02,2.79.27,1.05.3,2.15.52,3.21.5,2.51,2.06,4.79,4.22,6.17,3.91,2.51,10.37,1.77,12.28-2.48-3.6-2.62-7.39-5.29-11.75-6.4Z"/>
      <path class="cls-3" d="M24.81,53.84c-7.71,0-14.48,4.01-18.36,10.06h36.71c-3.87-6.05-10.64-10.06-18.36-10.06Z"/>
    </g>
  </g>
</svg>