<?xml version="1.0" encoding="UTF-8"?>
<svg id="Layer_2" data-name="Layer 2" xmlns="http://www.w3.org/2000/svg" viewBox="0 0 71.87 71.89">
  <defs>
    <style>
      .cls-1 {
        fill: #ead0a7;
      }

      .cls-2 {
        fill: #d8ae82;
      }

      .cls-3 {
        fill: #ebebf0;
      }

      .cls-4 {
        fill: #dba37d;
      }

      .cls-5 {
        fill: #d3d7e0;
      }

      .cls-6 {
        fill: #cc9656;
      }

      .cls-7 {
        fill: #e2b774;
      }

      .cls-8 {
        fill: #c17b48;
      }
    </style>
  </defs>
  <g id="Layer_1-2" data-name="Layer 1">
    <g>
      <path class="cls-4" d="M17.45,54.41l-3-3.93-7.07,7.07c1.76.05,3.5.75,4.85,2.08l5.22-5.22Z"/>
      <path class="cls-8" d="M17.47,54.42h-.01s-5.22,5.21-5.22,5.21c0,0,0,0,.01.01,1.35,1.35,2.04,3.1,2.1,4.86l7.07-7.07-3.95-3.01Z"/>
      <polygon class="cls-5" points="71.87 0 24.04 47.82 27.39 51.45 29.53 53.78 69.58 17.38 71.87 0"/>
      <polygon class="cls-3" points="54.48 2.28 18.09 42.33 20.44 44.5 24.04 47.82 71.87 0 54.48 2.28"/>
      <polygon class="cls-7" points="20.44 44.5 18.09 42.33 9.58 34.48 5.42 38.64 14.45 50.48 17.45 54.41 23.64 48.22 24.04 47.82 20.44 44.5"/>
      <polygon class="cls-6" points="29.53 53.78 27.39 51.45 24.04 47.82 23.64 48.22 17.45 54.41 17.47 54.42 21.41 57.43 33.25 66.47 37.41 62.31 29.53 53.78"/>
      <path class="cls-1" d="M7.39,57.55c-1.91-.06-3.83.64-5.29,2.1-2.8,2.8-2.8,7.33-.01,10.13l5.07-5.07,5.07-5.07c-1.35-1.34-3.09-2.03-4.85-2.08Z"/>
      <path class="cls-2" d="M14.34,64.5c-.05-1.76-.75-3.51-2.1-4.86,0,0,0,0-.01-.01l-5.07,5.07-5.07,5.07s0,0,.01.01c2.8,2.8,7.34,2.8,10.15,0,1.45-1.45,2.15-3.38,2.1-5.29Z"/>
    </g>
  </g>
</svg>