<?xml version="1.0" encoding="UTF-8"?>
<svg id="Layer_2" data-name="Layer 2" xmlns="http://www.w3.org/2000/svg" xmlns:xlink="http://www.w3.org/1999/xlink" viewBox="0 0 55.36 66.18">
  <defs>
    <style>
      .cls-1 {
        fill: #7fbd3e;
      }

      .cls-2 {
        fill: #995e41;
      }

      .cls-3 {
        fill: #98ce59;
      }

      .cls-4 {
        fill: #a56a43;
      }

      .cls-5 {
        clip-path: url(#clippath);
      }
    </style>
    <clipPath id="clippath">
      <path class="cls-4" d="M43.32,33.44v-.25c0-.61-.74-.98-1.3-.65l-7.38,4.34c-.77.45-1.66-.38-1.16-1.07l3-4.18c.21-.29.18-.67-.07-.93h0c-.35-.36-.97-.35-1.3.03l-4.68,5.4c-.49.57-1.5.26-1.51-.47l-.1-7.85c0-.42-.38-.76-.84-.76h-.36c-.42,0-.78.28-.84.67l-1.52,10.11c-.1.64-.96.9-1.45.42l-6.49-6.3c-.27-.26-.71-.32-1.05-.13l-1.12.62c-.44.24-.55.79-.22,1.15l7.03,7.84c.11.12.17.27.19.42,1.49,14.15-.74,20.87-1.89,23.26-.24.51.17,1.08.77,1.08h13.33c.61,0,1.02-.57.77-1.08-1.15-2.39-3.37-9.09-1.9-23.18.02-.2.13-.39.3-.52l9.51-7.37c.19-.15.3-.36.3-.59Z"/>
    </clipPath>
  </defs>
  <g id="Layer_1-2" data-name="Layer 1">
    <g>
      <g>
        <path class="cls-3" d="M17.77,16.53c2.4-1.45,5.31-1.75,8.11-1.87,2.8-.12,5.67-.11,8.31-1.06,2.13-.76,4.11-2.31,4.97-4.34-.13.04-.27.07-.4.11-.04-.3-.1-.59-.16-.88-.18-.81-.46-1.58-.82-2.32-1.79-3.65-5.63-6.18-10.1-6.18-5.68,0-10.36,4.09-11.08,9.37-1.09-.34-2.24-.53-3.45-.53-6.18,0-11.19,4.83-11.19,10.78,0,1.79.46,3.47,1.26,4.95-1.97,1.68-3.22,4.14-3.22,6.87,0,3.35,1.86,6.26,4.64,7.87.88.51,1.84.88,2.87,1.1.17.04.34.06.51.09,2.09-3.48,2.59-7.8,3.32-11.87.83-4.64,2.39-9.66,6.42-12.11Z"/>
        <path class="cls-1" d="M52.14,24.57c.8-1.48,1.26-3.16,1.26-4.95,0-.92-.13-1.81-.36-2.67-1.23-4.66-5.61-8.11-10.83-8.11-.75,0-1.49.08-2.2.22-.29.06-.57.12-.85.2-.86,2.03-2.85,3.58-4.97,4.34-2.64.95-5.51.94-8.31,1.06-2.8.12-5.71.41-8.11,1.87-4.03,2.44-5.59,7.47-6.42,12.11-.73,4.06-1.23,8.38-3.32,11.87.13.02.26.05.39.06.12.51.3,1,.52,1.47,1.3,2.79,4.19,4.73,7.56,4.73,3.65,0,6.74-2.27,7.85-5.43.94.56,2,.96,3.12,1.17.07.01.14.03.21.05,1.2-.21,2.33-.62,3.33-1.22,1.11,3.15,4.2,5.43,7.85,5.43,3.94,0,7.24-2.65,8.08-6.2,4.74-.54,8.41-4.41,8.41-9.12,0-2.74-1.25-5.19-3.22-6.87Z"/>
      </g>
      <g>
        <path class="cls-4" d="M43.32,33.44v-.25c0-.61-.74-.98-1.3-.65l-7.38,4.34c-.77.45-1.66-.38-1.16-1.07l3-4.18c.21-.29.18-.67-.07-.93h0c-.35-.36-.97-.35-1.3.03l-4.68,5.4c-.49.57-1.5.26-1.51-.47l-.1-7.85c0-.42-.38-.76-.84-.76h-.36c-.42,0-.78.28-.84.67l-1.52,10.11c-.1.64-.96.9-1.45.42l-6.49-6.3c-.27-.26-.71-.32-1.05-.13l-1.12.62c-.44.24-.55.79-.22,1.15l7.03,7.84c.11.12.17.27.19.42,1.49,14.15-.74,20.87-1.89,23.26-.24.51.17,1.08.77,1.08h13.33c.61,0,1.02-.57.77-1.08-1.15-2.39-3.37-9.09-1.9-23.18.02-.2.13-.39.3-.52l9.51-7.37c.19-.15.3-.36.3-.59Z"/>
        <g class="cls-5">
          <path class="cls-2" d="M28.62,40.38c-.32,5.34-.64,10.68-.95,16.02-.18,2.96-1.2,10.75-.19,13.54,1.65,4.56,7.36,2.9,12.21,2.83s9.44-3.08,11.8-7.32c2.04-3.67,2.48-8.02,2.46-12.22-.01-3.94-.39-7.91-1.52-11.68s-3.05-7.36-5.86-10.12c-2.05-2.01-4.61-3.58-7.44-4.02-2.6-.4-6.3.17-7.82,2.59-1.97,3.13-2.47,6.77-2.68,10.39Z"/>
        </g>
      </g>
    </g>
  </g>
</svg>