<?xml version="1.0" encoding="UTF-8"?>
<svg id="Layer_2" data-name="Layer 2" xmlns="http://www.w3.org/2000/svg" viewBox="0 0 55.38 55.38">
  <defs>
    <style>
      .cls-1 {
        fill: #fff;
      }

      .cls-2 {
        fill: #ff5a54;
      }
    </style>
  </defs>
  <g id="Layer_1-2" data-name="Layer 1">
    <g>
      <circle class="cls-2" cx="27.69" cy="27.69" r="27.69"/>
      <g>
        <path class="cls-1" d="M17.35,42.07c-.75,0-1.5-.27-2.11-.81-1.3-1.16-1.41-3.16-.24-4.46l20.68-23.07c1.16-1.3,3.16-1.41,4.46-.24,1.3,1.16,1.41,3.16.24,4.46l-20.68,23.07c-.62.7-1.49,1.05-2.35,1.05Z"/>
        <path class="cls-1" d="M38.36,41.67c-.83,0-1.66-.33-2.28-.97L14.74,18.43c-1.21-1.26-1.16-3.26.09-4.46s3.26-1.16,4.46.09l21.34,22.27c1.21,1.26,1.16,3.26-.09,4.46-.61.59-1.4.88-2.18.88Z"/>
      </g>
    </g>
  </g>
</svg>